<?xml version="1.0" encoding="iso-8859-1"?>
<!-- Generator: Adobe Illustrator 19.0.0, SVG Export Plug-In . SVG Version: 6.00 Build 0)  -->
<svg version="1.1" id="Layer_1" xmlns="http://www.w3.org/2000/svg" xmlns:xlink="http://www.w3.org/1999/xlink" x="0px" y="0px"
	 viewBox="0 0 512 512" style="enable-background:new 0 0 512 512;" xml:space="preserve">
<g>
	<g>
		<path d="M511.18,490.135L355.354,11.528C353.124,4.677,346.693,0,339.479,0h-0.001H172.522c-7.229,0-13.637,4.654-15.875,11.527
			L0.82,490.135c-1.655,5.083-0.776,10.652,2.365,14.978S11.35,512,16.696,512h118.428c36.21,0,68.126-23.137,79.43-57.608
			L256,327.075l41.458,127.352C308.751,488.863,340.667,512,376.877,512h118.428c5.346,0,10.369-2.56,13.51-6.886
			S512.835,495.219,511.18,490.135z M182.814,444.022c-6.784,20.687-25.949,34.587-47.689,34.587H39.69L184.644,33.391h131.841
			L182.814,444.022z M376.877,478.609c-21.741,0-40.905-13.9-47.678-34.553l-55.64-170.914l65.922-202.51l132.83,407.978H376.877z"
			/>
	</g>
</g>
<g>
</g>
<g>
</g>
<g>
</g>
<g>
</g>
<g>
</g>
<g>
</g>
<g>
</g>
<g>
</g>
<g>
</g>
<g>
</g>
<g>
</g>
<g>
</g>
<g>
</g>
<g>
</g>
<g>
</g>
</svg>
